<svg width="40" height="40" viewBox="0 0 40 40" fill="none" xmlns="http://www.w3.org/2000/svg">
<rect width="40" height="40" fill="#C4C4C4"/>
<rect y="28.4337" width="11.2" height="11.5663" fill="#34D399"/>
<rect x="1" y="29.4337" width="9.2" height="9.56627" stroke="black" stroke-opacity="0.49" stroke-width="2"/>
<rect x="11.2" y="28.4337" width="20" height="11.5663" fill="#FBBF24"/>
<rect x="12.2" y="29.4337" width="18" height="9.56627" stroke="black" stroke-opacity="0.49" stroke-width="2"/>
<rect y="14.2169" width="9.6" height="14.2169" fill="#FB7185"/>
<rect x="1" y="15.2169" width="7.6" height="12.2169" stroke="black" stroke-opacity="0.49" stroke-width="2"/>
<rect x="9.59998" y="14.2169" width="18" height="14.2169" fill="#60A5FA"/>
<rect x="10.6" y="15.2169" width="16" height="12.2169" stroke="black" stroke-opacity="0.49" stroke-width="2"/>
<rect x="27.6" y="14.2169" width="9.4" height="14.2169" fill="#C084FC"/>
<rect x="28.6" y="15.2169" width="7.4" height="12.2169" stroke="black" stroke-opacity="0.49" stroke-width="2"/>
<rect x="30.4" width="9.6" height="14.2169" fill="#FB923C"/>
<rect x="31.4" y="1" width="7.6" height="12.2169" stroke="black" stroke-opacity="0.49" stroke-width="2"/>
<rect x="31.2" y="28.4337" width="8.8" height="11.5663" fill="#C084FC"/>
<rect x="32.2" y="29.4337" width="6.8" height="9.56627" stroke="black" stroke-opacity="0.49" stroke-width="2"/>
<rect x="37" y="14.2169" width="3" height="14.2169" fill="#22D3EE"/>
<rect x="37.75" y="14.9669" width="1.5" height="12.7169" stroke="black" stroke-opacity="0.49" stroke-width="1.5"/>
<rect width="30.4" height="14.2169" fill="#F472B6"/>
<rect x="1" y="1" width="28.4" height="12.2169" stroke="black" stroke-opacity="0.49" stroke-width="2"/>
</svg>
